<svg width="24" height="25" viewBox="0 0 24 25" fill="none" xmlns="http://www.w3.org/2000/svg">
<path d="M12 2.21094C6.20156 2.21094 1.5 7.03438 1.5 12.9781C1.5 17.7359 4.50937 21.7672 8.68125 23.1922C8.73977 23.2049 8.79949 23.2112 8.85938 23.2109C9.24844 23.2109 9.39844 22.925 9.39844 22.6766C9.39844 22.4187 9.38906 21.7437 9.38437 20.8437C9.03705 20.9252 8.68173 20.9676 8.325 20.9703C6.30469 20.9703 5.84531 19.4 5.84531 19.4C5.36719 18.1578 4.67813 17.825 4.67813 17.825C3.76406 17.1828 4.67344 17.1641 4.74375 17.1641H4.74844C5.80313 17.2578 6.35625 18.2797 6.35625 18.2797C6.88125 19.1984 7.58437 19.4562 8.2125 19.4562C8.62783 19.4479 9.03673 19.3521 9.4125 19.175C9.50625 18.4812 9.77812 18.0078 10.0781 17.7359C7.74844 17.4641 5.29688 16.5406 5.29688 12.4156C5.29688 11.2391 5.70469 10.2781 6.375 9.52812C6.26719 9.25625 5.90625 8.15937 6.47812 6.67812C6.55483 6.65977 6.63368 6.65189 6.7125 6.65469C7.09219 6.65469 7.95 6.8 9.36563 7.78437C11.0857 7.30311 12.9049 7.30311 14.625 7.78437C16.0406 6.8 16.8984 6.65469 17.2781 6.65469C17.3569 6.65189 17.4358 6.65977 17.5125 6.67812C18.0844 8.15937 17.7234 9.25625 17.6156 9.52812C18.2859 10.2828 18.6937 11.2437 18.6937 12.4156C18.6937 16.55 16.2375 17.4594 13.8984 17.7266C14.2734 18.0594 14.6109 18.7156 14.6109 19.7187C14.6109 21.1578 14.5969 22.3203 14.5969 22.6719C14.5969 22.925 14.7422 23.2109 15.1312 23.2109C15.1942 23.2112 15.2571 23.2049 15.3187 23.1922C19.4953 21.7672 22.5 17.7312 22.5 12.9781C22.5 7.03438 17.7984 2.21094 12 2.21094Z" fill="#84EEF5"/>
</svg>
